<?xml version="1.0" standalone="no"?>
<!DOCTYPE svg PUBLIC "-//W3C//DTD SVG 20010904//EN"
 "http://www.w3.org/TR/2001/REC-SVG-20010904/DTD/svg10.dtd">
<svg version="1.0" xmlns="http://www.w3.org/2000/svg"
 width="50.000000pt" height="50.000000pt" viewBox="0 0 50.000000 50.000000"
 preserveAspectRatio="xMidYMid meet">
<metadata>
Created by potrace 1.10, written by Peter Selinger 2001-2011
</metadata>
<g transform="translate(0.000000,50.000000) scale(0.100000,-0.100000)"
fill="#ffe100" stroke="none">
<path d="M140 473 c0 -17 -51 -329 -56 -345 -4 -12 15 -28 77 -62 44 -25 85
-46 89 -46 4 0 43 20 87 45 l79 45 -19 128 c-26 168 -22 160 -56 128 -31 -30
-41 -69 -11 -41 16 14 18 11 30 -47 6 -35 14 -78 16 -96 2 -18 5 -36 5 -40 3
-21 -7 -31 -65 -61 l-65 -33 -75 38 c-41 21 -74 39 -73 41 1 1 46 47 100 102
l98 99 -20 41 c-12 23 -26 41 -32 41 -20 0 -20 -29 0 -49 12 -12 21 -27 21
-35 0 -17 -16 -30 -23 -19 -2 5 -3 3 -1 -3 3 -15 -91 -107 -112 -110 -12 -2
-14 3 -10 19 3 12 11 56 17 97 14 100 18 110 30 87 6 -9 21 -29 35 -44 23 -25
24 -25 24 -4 0 11 -4 21 -8 21 -4 0 -21 25 -37 55 -27 49 -45 68 -45 48z"/>
<path d="M180 291 c-11 -23 -17 -41 -13 -41 9 1 44 72 38 78 -2 2 -13 -14 -25
-37z"/>
<path d="M146 224 c-10 -25 1 -29 14 -5 6 12 7 21 1 21 -5 0 -12 -7 -15 -16z"/>
</g>
</svg>
